<svg viewBox="0 0 100 65" fill="none" xmlns="http://www.w3.org/2000/svg">
  <!-- North Dakota state outline -->
  <path d="M5 5 L95 5 L95 12 L92 15 L95 20 L95 60 L5 60 L5 55 L8 50 L5 45 Z"
        stroke="currentColor"
        stroke-width="2"
        fill="none"
        opacity="0.6"/>

  <!-- Mesh connection lines -->
  <line x1="20" y1="20" x2="50" y2="15" stroke="currentColor" stroke-width="1" opacity="0.4"/>
  <line x1="20" y1="20" x2="35" y2="40" stroke="currentColor" stroke-width="1" opacity="0.4"/>
  <line x1="50" y1="15" x2="75" y2="25" stroke="currentColor" stroke-width="1" opacity="0.4"/>
  <line x1="50" y1="15" x2="35" y2="40" stroke="currentColor" stroke-width="1" opacity="0.4"/>
  <line x1="35" y1="40" x2="60" y2="45" stroke="currentColor" stroke-width="1" opacity="0.4"/>
  <line x1="75" y1="25" x2="60" y2="45" stroke="currentColor" stroke-width="1" opacity="0.4"/>
  <line x1="75" y1="25" x2="85" y2="40" stroke="currentColor" stroke-width="1" opacity="0.4"/>
  <line x1="60" y1="45" x2="85" y2="40" stroke="currentColor" stroke-width="1" opacity="0.4"/>
  <line x1="35" y1="40" x2="25" y2="50" stroke="currentColor" stroke-width="1" opacity="0.4"/>
  <line x1="60" y1="45" x2="50" y2="52" stroke="currentColor" stroke-width="1" opacity="0.4"/>
  <line x1="25" y1="50" x2="50" y2="52" stroke="currentColor" stroke-width="1" opacity="0.4"/>

  <!-- Mesh nodes -->
  <circle cx="20" cy="20" r="4" fill="currentColor"/>
  <circle cx="50" cy="15" r="4" fill="currentColor"/>
  <circle cx="75" cy="25" r="4" fill="currentColor"/>
  <circle cx="35" cy="40" r="4" fill="currentColor"/>
  <circle cx="60" cy="45" r="4" fill="currentColor"/>
  <circle cx="85" cy="40" r="3" fill="currentColor"/>
  <circle cx="25" cy="50" r="3" fill="currentColor"/>
  <circle cx="50" cy="52" r="3" fill="currentColor"/>
</svg>
